<?xml version="1.0" standalone="yes"?>
<svg xmlns="http://www.w3.org/2000/svg" width="1024" height="1024">
<path style="fill:#000000; stroke:none;" d="M73 460C80.6393 463.206 92.7293 461 101 461L163 461L183 461C186.245 461 190.003 461.471 193 459.972C196.899 458.023 199.813 454.053 203 451.17C210.547 444.342 217.603 436.999 225.17 430.196C252.477 405.644 278.712 379.659 305 354.015C353.762 306.447 404.219 260.601 453 213.015C467.168 199.194 481.99 185.986 496 172C501.319 166.69 507.654 162.152 512 156C566.838 210.838 625.109 262.197 680 317C693.669 330.647 708.166 343.49 722 356.985C728.099 362.935 735.052 367.976 740 375C732.187 378.286 725.093 384.026 718 388.656C706.496 396.166 694.819 403.389 683 410.397C648.552 430.821 612.387 448.984 576 465.691C516.121 493.186 454.209 516.893 390 532.116C329.086 546.557 267.447 553 205 553C178.159 553 150.623 553.365 124 550L124 618L184 619L184 948L287 948L287 868L209 868L209 619C232.999 619 257.124 618.141 281 615.83C302.043 613.794 322.96 609.663 344 608L344 671L318 671L318 702C318 707.033 318.911 713.097 317.682 718C315.667 726.036 305.887 731.023 302.627 739C299.33 747.066 300 755.466 300 764C300 779.314 296.776 798.715 303.043 813C309.587 827.915 322.243 841.927 331.884 855C336.167 860.807 340.699 867.252 348 869.362C355.615 871.563 365.595 869.779 371.985 865.2C378.521 860.517 382.814 852.447 387.421 846C398.285 830.797 411.997 816.247 413.83 797C414.8 786.821 414 776.223 414 766C414 757.527 414.712 748.043 411.521 740C409.675 735.348 406.558 730.714 402.907 727.3C400.157 724.73 396.341 722.856 395.318 718.961C394.045 714.115 395 707.987 395 703L395 671L370 671L370 603C400.693 599.036 431.527 589.182 461 580.025C483.026 573.182 506.068 566.789 527 557L527 617L501 618L501 652C501 656.812 502.151 663.412 500.397 667.961C498.672 672.432 493.331 675.376 490.329 679.001C485.321 685.046 483.039 692.241 483.001 700C482.944 711.666 483 723.334 483 735C483 742.466 482.371 749.895 485.066 757C491.172 773.101 504.582 788.11 514.579 802C519.499 808.834 525.291 815.144 534 816.671C557.139 820.729 566.112 799.997 577.424 784C584.216 774.396 592.416 764.433 595.791 753C597.856 746.006 597 738.215 597 731C597 717.1 600.099 698.899 594.085 686C592.192 681.941 589.238 678.214 585.961 675.184C583.216 672.648 579.338 670.83 578.318 666.96C577.349 663.281 578 658.778 578 655L578 631C578 627.25 579.176 620.664 575.566 618.179C570.594 614.756 558.862 617 553 617L553 568C553 562.675 551.141 552.932 554.028 548.275C556.536 544.229 563.852 542.715 568 540.988C579.4 536.244 590.883 531.12 602 525.742C644.076 505.383 686.089 484.432 726 460L726 542L703 542L703 576C703 580.476 704.09 586.69 702.397 590.907C701.087 594.169 697.64 595.618 695.001 597.609C691.332 600.376 688.1 603.891 685.996 608C679.032 621.604 682.321 640.395 682.961 655C683.323 663.278 682.247 671.122 685.454 679C692.18 695.523 706.188 710.613 716.576 725C721.802 732.239 726.78 739.206 736 741.319C744.396 743.244 752.122 739.938 757.96 733.985C767.009 724.756 773.712 712.61 781.026 702C788.525 691.121 797.464 680.651 798.829 667C799.846 656.839 799 646.21 799 636C799 627.007 799.643 617.354 795.672 609C793.673 604.794 790.631 601.397 786.999 598.518C783.853 596.024 779.426 594.166 778.318 589.96C777.042 585.118 778 578.984 778 574L778 542L754 542L754 477C754 466.024 755.55 453.712 753 443C761.46 439.746 769.445 433.037 777 428C779.978 426.015 784.247 421.846 788 421.792C792.932 421.721 797.699 428.844 801 431.83C807.677 437.872 814.491 443.818 821 450.039C824.849 453.718 828.696 458.894 834 460.486C837.994 461.685 842.873 461 847 461L872 461L954 461C929.907 434.94 902.101 412.101 877 387C871.437 381.437 865.779 376.006 859.961 370.711C856.066 367.166 851.021 363.14 848.719 358.286C846.145 352.856 848.22 343.926 847.961 338C847.108 318.503 848 298.627 848 279L848 80L719 80L719 239C668.542 188.542 616.209 139.544 564 90.9105C551.425 79.1967 539.227 67.0857 527 55.0038C523.78 51.8217 516.858 43.199 512 43.2068C508.494 43.2124 505.231 47.7748 503 50C496.48 56.5036 489.514 62.4869 483 69C469.997 82.0009 456.287 94.3345 443 107.039C430.641 118.857 418.824 131.403 406 142.714C372.426 172.327 341.356 205.022 309 235.961C264.168 278.829 218.829 321.173 174 364.039L108 427.039C96.5237 438.013 85.6428 450.367 73 460M765 785L765 844C765 849.101 767.252 861.541 763.397 865.397C759.541 869.252 747.101 867 742 867L683 867L446 867L446 948L843 948L843 785L765 785z"/>
</svg>
